<svg width="236" height="90" viewBox="0 0 236 90" fill="none" xmlns="http://www.w3.org/2000/svg">
<g clip-path="url(#clip0_91_308)">
<mask id="path-1-outside-1_91_308" maskUnits="userSpaceOnUse" x="9.07668" y="3.9611" width="77.3587" height="80.7631" fill="black">
<rect fill="white" x="9.07668" y="3.9611" width="77.3587" height="80.7631"/>
<path d="M41.0775 10.1708C42.0519 9.88462 42.7005 11.1172 42.0144 11.8659C37.6424 16.6363 34.6235 22.7153 33.6581 29.5843C31.0987 47.7967 43.9363 64.6568 62.332 67.2422C66.8405 67.8758 71.264 67.5921 75.4115 66.5357C76.3956 66.2851 77.1738 67.4382 76.4603 68.1607C68.8939 75.8211 57.8703 79.9332 46.3155 78.3093C27.0093 75.5959 13.5362 57.9012 16.2223 38.7873C18.1874 24.805 28.2555 13.9368 41.0775 10.1708Z"/>
</mask>
<path d="M41.0775 10.1708C42.0519 9.88462 42.7005 11.1172 42.0144 11.8659C37.6424 16.6363 34.6235 22.7153 33.6581 29.5843C31.0987 47.7967 43.9363 64.6568 62.332 67.2422C66.8405 67.8758 71.264 67.5921 75.4115 66.5357C76.3956 66.2851 77.1738 67.4382 76.4603 68.1607C68.8939 75.8211 57.8703 79.9332 46.3155 78.3093C27.0093 75.5959 13.5362 57.9012 16.2223 38.7873C18.1874 24.805 28.2555 13.9368 41.0775 10.1708Z" fill="white"/>
<path d="M33.6581 29.5843L31.6776 29.3059L31.6776 29.306L33.6581 29.5843ZM62.332 67.2422L62.0536 69.2227L62.0536 69.2227L62.332 67.2422ZM46.3155 78.3093L46.0372 80.2898L46.0372 80.2898L46.3155 78.3093ZM16.2223 38.7873L14.2418 38.5089L14.2418 38.509L16.2223 38.7873ZM76.4603 68.1607L75.0374 66.7552L76.4603 68.1607ZM42.0144 11.8659L40.5399 10.5146L42.0144 11.8659ZM41.0775 10.1708L40.5139 8.25189L41.0775 10.1708ZM42.0144 11.8659L40.5399 10.5146C35.9045 15.5725 32.7013 22.0222 31.6776 29.3059L33.6581 29.5843L35.6387 29.8626C36.5458 23.4084 39.3804 17.7 43.4888 13.2172L42.0144 11.8659ZM33.6581 29.5843L31.6776 29.306C28.9618 48.6308 42.5828 66.4863 62.0536 69.2227L62.332 67.2422L62.6103 65.2616C45.2897 62.8274 33.2355 46.9626 35.6387 29.8626L33.6581 29.5843ZM62.332 67.2422L62.0536 69.2227C66.8241 69.8932 71.5098 69.5934 75.9052 68.4739L75.4115 66.5357L74.9179 64.5976C71.0182 65.5909 66.8568 65.8585 62.6103 65.2616L62.332 67.2422ZM76.4603 68.1607L75.0374 66.7552C67.8995 73.9818 57.5006 77.8616 46.5939 76.3288L46.3155 78.3093L46.0372 80.2898C58.2401 82.0048 69.8883 77.6604 77.8832 69.5661L76.4603 68.1607ZM46.3155 78.3093L46.5939 76.3288C28.3627 73.7665 15.6731 57.0671 18.2028 39.0656L16.2223 38.7873L14.2418 38.509C11.3993 58.7354 25.6559 77.4253 46.0372 80.2898L46.3155 78.3093ZM16.2223 38.7873L18.2028 39.0656C20.0535 25.8977 29.5363 15.6451 41.6411 12.0898L41.0775 10.1708L40.5139 8.25189C26.9748 12.2285 16.3213 23.7123 14.2418 38.5089L16.2223 38.7873ZM75.4115 66.5357L75.9052 68.4739C75.4831 68.5814 75.0903 68.3694 74.9015 68.0823C74.8044 67.9347 74.7236 67.7178 74.7392 67.4503C74.7562 67.1592 74.8827 66.9118 75.0374 66.7552L76.4603 68.1607L77.8832 69.5661C78.9985 68.437 78.9124 66.9015 78.2435 65.8843C77.5979 64.9027 76.324 64.2395 74.9179 64.5976L75.4115 66.5357ZM42.0144 11.8659L43.4888 13.2172C44.4698 12.1467 44.4864 10.7102 43.9273 9.67784C43.3483 8.60857 42.0372 7.80446 40.5139 8.25189L41.0775 10.1708L41.6411 12.0898C41.4295 12.1519 41.152 12.1458 40.8882 12.0232C40.646 11.9105 40.4937 11.7373 40.41 11.5827C40.2473 11.2822 40.2451 10.8363 40.5399 10.5146L42.0144 11.8659Z" fill="#919191" mask="url(#path-1-outside-1_91_308)"/>
<path d="M29.8507 43.3738C33.138 44.0053 35.3899 47.086 34.9234 50.405L34.8699 50.7229C34.2414 53.9771 31.1374 56.1991 27.785 55.728L27.4642 55.674V55.674C27.325 55.6473 27.2733 55.4746 27.3501 55.3554C27.4738 55.1634 27.5591 54.9428 27.5929 54.702C27.6135 54.5555 27.6139 54.4109 27.5962 54.2707C27.565 54.0239 27.817 53.7128 28.0634 53.7475V53.7475C30.4488 54.0827 32.6177 52.4403 32.9429 50.1267C33.2681 47.813 31.6359 45.6364 29.2504 45.3012C26.865 44.9661 24.697 46.6086 24.3718 48.9221C24.2249 49.968 24.4779 50.9857 25.0196 51.8181C25.2685 52.2005 25.0292 53.0183 24.7178 53.3519V53.3519C24.4642 53.6238 23.9931 53.7593 23.757 53.4722C22.7471 52.2441 22.2051 50.6445 22.3542 48.964L22.3913 48.6437C22.8728 45.2178 26.0683 42.8345 29.5288 43.3206L29.8507 43.3738Z" fill="#919191"/>
<path d="M46.8311 69.7288C45.0765 69.5715 43.491 70.8035 43.2454 72.5502L43.2256 72.719C43.0715 74.4565 44.3198 76.0304 46.0842 76.2784L46.254 76.2983V76.2983C46.328 76.305 46.3792 76.2218 46.3578 76.1507C46.3234 76.0362 46.3121 75.9131 46.3298 75.7873C46.3393 75.7199 46.3565 75.6555 46.3804 75.5948C46.4272 75.4759 46.35 75.3059 46.2234 75.2882V75.2882C44.9396 75.1077 44.0604 73.9363 44.2357 72.6893C44.411 71.4425 45.579 70.5587 46.8627 70.7391C48.1464 70.9196 49.0256 72.0911 48.8505 73.3379C48.7688 73.9186 48.4714 74.4194 48.0475 74.7712C47.8678 74.9202 47.8649 75.3025 47.9742 75.5088V75.5088C48.0686 75.6871 48.2947 75.8291 48.4603 75.714C49.1438 75.2391 49.6457 74.512 49.8132 73.6448L49.8407 73.4771C50.094 71.674 48.8231 70.0049 47.0019 69.7488L46.8311 69.7288Z" fill="#919191"/>
<path d="M31.3647 19.1202C33.2931 18.2681 35.5827 19.0571 36.5558 20.9449L36.6441 21.1289C36.6983 21.2487 36.7459 21.37 36.7871 21.4922C36.8804 21.7694 36.6235 22.0187 36.3299 22.0322V22.0322C36.1 22.0427 35.8744 21.9056 35.7939 21.6911C35.7564 21.591 35.7129 21.492 35.6627 21.3947C34.9127 19.9398 33.1119 19.3545 31.6375 20.097C30.163 20.8395 29.5836 22.6236 30.3336 24.0786C31.0824 25.5312 32.8787 26.117 34.3518 25.3798C34.3556 25.3779 34.3604 25.3794 34.3624 25.3832V25.3832C34.4879 25.6267 34.6517 25.8378 34.842 26.0147C34.9202 26.0873 34.912 26.2173 34.817 26.2651V26.2651L34.6316 26.353C32.7653 27.1778 30.5605 26.4654 29.5383 24.7076L29.4404 24.5284C28.4359 22.5796 29.2145 20.1976 31.1793 19.2081L31.3647 19.1202Z" fill="#919191"/>
<path d="M87.5583 35.088C87.0303 35.088 86.5983 34.976 86.2623 34.752C85.9423 34.544 85.7823 34.256 85.7823 33.888C85.7823 33.568 85.8943 33.32 86.1183 33.144C86.3263 32.968 86.5823 32.88 86.8863 32.88C87.2543 32.88 87.5743 33.016 87.8463 33.288C88.1183 33.56 88.3423 33.864 88.5183 34.2C89.0463 34.088 89.4143 33.824 89.6223 33.408C89.8463 33.008 89.9743 32.488 90.0063 31.848C90.0543 31.208 90.0783 30.504 90.0783 29.736V15.264C90.0783 14.784 90.0463 14.44 89.9823 14.232C89.9343 14.024 89.7903 13.888 89.5503 13.824C89.3103 13.744 88.9103 13.688 88.3503 13.656C88.3343 13.496 88.3343 13.336 88.3503 13.176C88.6863 13.176 89.1263 13.184 89.6703 13.2C90.2303 13.216 90.6863 13.224 91.0383 13.224C91.4063 13.224 91.8543 13.216 92.3823 13.2C92.9103 13.184 93.3583 13.176 93.7263 13.176V13.656C93.1663 13.704 92.7583 13.752 92.5023 13.8C92.2623 13.848 92.1103 13.96 92.0463 14.136C91.9983 14.312 91.9743 14.616 91.9743 15.048V28.896C91.9743 29.968 91.8703 30.88 91.6623 31.632C91.4543 32.384 91.1263 33.032 90.6783 33.576C90.2623 34.072 89.7743 34.448 89.2143 34.704C88.6703 34.96 88.1183 35.088 87.5583 35.088ZM97.7052 30.024C97.6892 29.864 97.6892 29.704 97.7052 29.544C98.2492 29.496 98.6412 29.448 98.8812 29.4C99.1212 29.336 99.2652 29.216 99.3132 29.04C99.3772 28.864 99.4092 28.568 99.4092 28.152V15.264C99.4092 14.784 99.3772 14.44 99.3132 14.232C99.2492 14.024 99.0972 13.888 98.8572 13.824C98.6332 13.744 98.2492 13.688 97.7052 13.656C97.6892 13.496 97.6892 13.336 97.7052 13.176C98.1052 13.176 98.4412 13.184 98.7132 13.2C99.0012 13.2 99.3292 13.208 99.6972 13.224C100.081 13.224 100.601 13.224 101.257 13.224C101.945 13.224 102.641 13.224 103.345 13.224C104.049 13.208 104.705 13.2 105.313 13.2C105.921 13.2 106.425 13.2 106.825 13.2C107.225 13.184 107.457 13.176 107.521 13.176C107.617 14.088 107.753 15.056 107.929 16.08C107.753 16.096 107.593 16.096 107.449 16.08C107.321 15.648 107.185 15.304 107.041 15.048C106.897 14.776 106.745 14.568 106.585 14.424C106.377 14.232 106.113 14.104 105.793 14.04C105.489 13.976 105.105 13.944 104.641 13.944H101.329V20.952H103.849C104.409 20.952 104.825 20.92 105.097 20.856C105.369 20.792 105.561 20.632 105.673 20.376C105.785 20.104 105.881 19.672 105.961 19.08C106.137 19.064 106.305 19.064 106.465 19.08C106.465 19.192 106.457 19.472 106.441 19.92C106.425 20.352 106.417 20.84 106.417 21.384C106.417 21.88 106.425 22.352 106.441 22.8C106.457 23.232 106.465 23.52 106.465 23.664C106.321 23.68 106.153 23.68 105.961 23.664C105.897 23.024 105.809 22.576 105.697 22.32C105.585 22.048 105.401 21.88 105.145 21.816C104.889 21.752 104.505 21.72 103.993 21.72H101.329V29.256H104.521C105.097 29.256 105.585 29.224 105.985 29.16C106.401 29.08 106.721 28.928 106.945 28.704C107.105 28.544 107.273 28.288 107.449 27.936C107.641 27.584 107.833 27.168 108.025 26.688C108.169 26.672 108.321 26.672 108.481 26.688C108.353 27.328 108.241 27.944 108.145 28.536C108.065 29.128 108.001 29.616 107.953 30C107.425 30 106.817 30 106.129 30C105.441 30 104.745 30 104.041 30C103.337 29.984 102.697 29.976 102.121 29.976C101.545 29.976 101.105 29.976 100.801 29.976C100.257 29.976 99.8092 29.984 99.4572 30C99.1212 30 98.8252 30 98.5692 30C98.3132 30.016 98.0252 30.024 97.7052 30.024ZM126.371 30.168L122.723 19.656L118.379 29.976C118.251 30.008 118.091 30.032 117.899 30.048C117.707 30.08 117.547 30.104 117.419 30.12L112.331 15.456C112.139 14.896 111.971 14.496 111.827 14.256C111.699 14.016 111.515 13.864 111.275 13.8C111.035 13.736 110.667 13.688 110.171 13.656C110.155 13.496 110.155 13.336 110.171 13.176C110.555 13.176 110.987 13.184 111.467 13.2C111.947 13.216 112.387 13.224 112.787 13.224C113.139 13.224 113.579 13.216 114.107 13.2C114.635 13.184 115.075 13.176 115.427 13.176C115.443 13.336 115.443 13.496 115.427 13.656C114.883 13.704 114.507 13.752 114.299 13.8C114.091 13.848 113.987 13.984 113.987 14.208C113.987 14.384 114.051 14.64 114.179 14.976L118.475 27.624L122.339 18.528L121.283 15.48C121.091 14.904 120.931 14.496 120.803 14.256C120.675 14.016 120.507 13.864 120.299 13.8C120.091 13.736 119.755 13.688 119.291 13.656C119.275 13.496 119.275 13.336 119.291 13.176C119.691 13.176 120.115 13.184 120.563 13.2C121.027 13.216 121.459 13.224 121.859 13.224C122.227 13.224 122.683 13.216 123.227 13.2C123.771 13.184 124.235 13.176 124.619 13.176C124.635 13.336 124.635 13.496 124.619 13.656C123.979 13.704 123.539 13.76 123.299 13.824C123.059 13.872 122.939 14.008 122.939 14.232C122.939 14.392 122.995 14.64 123.107 14.976L127.403 27.672L132.011 15.24C132.091 15.016 132.155 14.832 132.203 14.688C132.267 14.528 132.299 14.392 132.299 14.28C132.299 14.056 132.179 13.912 131.939 13.848C131.715 13.768 131.323 13.704 130.763 13.656C130.747 13.496 130.747 13.336 130.763 13.176C130.923 13.176 131.163 13.184 131.483 13.2C131.803 13.2 132.123 13.208 132.443 13.224C132.763 13.224 133.003 13.224 133.163 13.224C133.531 13.224 133.891 13.216 134.243 13.2C134.595 13.184 134.947 13.176 135.299 13.176C135.315 13.336 135.315 13.496 135.299 13.656C134.803 13.688 134.419 13.744 134.147 13.824C133.891 13.904 133.675 14.08 133.499 14.352C133.323 14.624 133.115 15.064 132.875 15.672L127.283 30.024C127.171 30.056 127.019 30.08 126.827 30.096C126.635 30.128 126.483 30.152 126.371 30.168ZM137.127 30.024C137.111 29.864 137.111 29.704 137.127 29.544C137.671 29.496 138.063 29.448 138.303 29.4C138.543 29.336 138.687 29.216 138.735 29.04C138.799 28.864 138.831 28.568 138.831 28.152V15.264C138.831 14.784 138.799 14.44 138.735 14.232C138.671 14.024 138.519 13.888 138.279 13.824C138.055 13.744 137.671 13.688 137.127 13.656C137.111 13.496 137.111 13.336 137.127 13.176C137.527 13.176 137.863 13.184 138.135 13.2C138.423 13.2 138.751 13.208 139.119 13.224C139.503 13.224 140.023 13.224 140.679 13.224C141.367 13.224 142.063 13.224 142.767 13.224C143.471 13.208 144.127 13.2 144.735 13.2C145.343 13.2 145.847 13.2 146.247 13.2C146.647 13.184 146.879 13.176 146.943 13.176C147.039 14.088 147.175 15.056 147.351 16.08C147.175 16.096 147.015 16.096 146.871 16.08C146.743 15.648 146.607 15.304 146.463 15.048C146.319 14.776 146.167 14.568 146.007 14.424C145.799 14.232 145.535 14.104 145.215 14.04C144.911 13.976 144.527 13.944 144.063 13.944H140.751V20.952H143.271C143.831 20.952 144.247 20.92 144.519 20.856C144.791 20.792 144.983 20.632 145.095 20.376C145.207 20.104 145.303 19.672 145.383 19.08C145.559 19.064 145.727 19.064 145.887 19.08C145.887 19.192 145.879 19.472 145.863 19.92C145.847 20.352 145.839 20.84 145.839 21.384C145.839 21.88 145.847 22.352 145.863 22.8C145.879 23.232 145.887 23.52 145.887 23.664C145.743 23.68 145.575 23.68 145.383 23.664C145.319 23.024 145.231 22.576 145.119 22.32C145.007 22.048 144.823 21.88 144.567 21.816C144.311 21.752 143.927 21.72 143.415 21.72H140.751V29.256H143.943C144.519 29.256 145.007 29.224 145.407 29.16C145.823 29.08 146.143 28.928 146.367 28.704C146.527 28.544 146.695 28.288 146.871 27.936C147.063 27.584 147.255 27.168 147.447 26.688C147.591 26.672 147.743 26.672 147.903 26.688C147.775 27.328 147.663 27.944 147.567 28.536C147.487 29.128 147.423 29.616 147.375 30C146.847 30 146.239 30 145.551 30C144.863 30 144.167 30 143.463 30C142.759 29.984 142.119 29.976 141.543 29.976C140.967 29.976 140.527 29.976 140.223 29.976C139.679 29.976 139.231 29.984 138.879 30C138.543 30 138.247 30 137.991 30C137.735 30.016 137.447 30.024 137.127 30.024ZM151.729 30.024C151.713 29.864 151.713 29.704 151.729 29.544C152.273 29.496 152.665 29.448 152.905 29.4C153.145 29.336 153.289 29.216 153.337 29.04C153.401 28.864 153.433 28.568 153.433 28.152V15.264C153.433 14.784 153.401 14.44 153.337 14.232C153.273 14.024 153.121 13.888 152.881 13.824C152.657 13.744 152.273 13.688 151.729 13.656C151.713 13.496 151.713 13.336 151.729 13.176C152.097 13.176 152.553 13.184 153.097 13.2C153.641 13.216 154.073 13.224 154.393 13.224C154.601 13.224 154.873 13.224 155.209 13.224C155.545 13.208 155.881 13.2 156.217 13.2C156.569 13.184 156.857 13.176 157.081 13.176C157.097 13.336 157.097 13.496 157.081 13.656C156.521 13.704 156.121 13.752 155.881 13.8C155.641 13.848 155.489 13.96 155.425 14.136C155.377 14.312 155.353 14.616 155.353 15.048V27.84C155.353 28.24 155.353 28.56 155.353 28.8C155.353 29.024 155.361 29.176 155.377 29.256H158.881C159.441 29.256 159.897 29.216 160.249 29.136C160.601 29.056 160.881 28.896 161.089 28.656C161.265 28.464 161.449 28.184 161.641 27.816C161.849 27.432 162.033 26.968 162.193 26.424C162.337 26.408 162.481 26.408 162.625 26.424C162.497 27.144 162.377 27.824 162.265 28.464C162.169 29.104 162.089 29.616 162.025 30C161.273 30 160.449 30 159.553 30C158.673 29.984 157.785 29.976 156.889 29.976C156.009 29.976 155.193 29.976 154.441 29.976C154.217 29.976 153.937 29.984 153.601 30C153.265 30 152.929 30 152.593 30C152.257 30.016 151.969 30.024 151.729 30.024ZM169.476 22.176L168.876 22.128V27.936C168.876 28.416 168.908 28.768 168.972 28.992C169.036 29.2 169.188 29.336 169.428 29.4C169.684 29.448 170.1 29.496 170.676 29.544C170.692 29.704 170.692 29.864 170.676 30.024C170.452 30.024 170.156 30.016 169.788 30C169.436 30 169.084 30 168.732 30C168.396 29.984 168.116 29.976 167.892 29.976C167.684 29.976 167.404 29.984 167.052 30C166.716 30 166.38 30 166.044 30C165.708 30.016 165.428 30.024 165.204 30.024C165.188 29.864 165.188 29.704 165.204 29.544C165.764 29.496 166.164 29.448 166.404 29.4C166.66 29.352 166.812 29.24 166.86 29.064C166.924 28.872 166.956 28.568 166.956 28.152V15.24C166.956 14.76 166.924 14.416 166.86 14.208C166.796 14 166.636 13.864 166.38 13.8C166.14 13.736 165.748 13.688 165.204 13.656C165.188 13.496 165.188 13.336 165.204 13.176C165.428 13.176 165.708 13.184 166.044 13.2C166.396 13.2 166.74 13.208 167.076 13.224C167.428 13.224 167.708 13.224 167.916 13.224C168.124 13.224 168.436 13.224 168.852 13.224C169.268 13.208 169.684 13.2 170.1 13.2C170.516 13.184 170.82 13.176 171.012 13.176C171.924 13.176 172.772 13.312 173.556 13.584C174.34 13.856 174.972 14.296 175.452 14.904C175.948 15.496 176.196 16.296 176.196 17.304C176.196 18.488 175.844 19.448 175.14 20.184C174.436 20.92 173.492 21.472 172.308 21.84V21.912C172.532 22.024 172.74 22.168 172.932 22.344C173.14 22.504 173.372 22.744 173.628 23.064C173.82 23.304 174.092 23.688 174.444 24.216C174.812 24.744 175.196 25.32 175.596 25.944C176.012 26.552 176.388 27.12 176.724 27.648C177.092 28.224 177.404 28.64 177.66 28.896C177.916 29.136 178.196 29.296 178.5 29.376C178.804 29.44 179.212 29.496 179.724 29.544C179.74 29.704 179.74 29.864 179.724 30.024C179.5 30.024 179.212 30.016 178.86 30C178.508 30 178.164 30 177.828 30C177.508 29.984 177.26 29.976 177.084 29.976C176.892 29.976 176.708 29.984 176.532 30C176.356 30 176.18 30 176.004 30C175.828 29.696 175.572 29.28 175.236 28.752C174.9 28.208 174.524 27.616 174.108 26.976C173.692 26.336 173.276 25.712 172.86 25.104C172.46 24.48 172.1 23.952 171.78 23.52C171.508 23.136 171.268 22.856 171.06 22.68C170.852 22.504 170.628 22.384 170.388 22.32C170.164 22.256 169.86 22.208 169.476 22.176ZM168.876 21.408C169.084 21.44 169.268 21.464 169.428 21.48C169.588 21.48 169.74 21.48 169.884 21.48C171.164 21.48 172.188 21.168 172.956 20.544C173.74 19.904 174.132 18.912 174.132 17.568C174.132 16.368 173.804 15.456 173.148 14.832C172.492 14.192 171.524 13.872 170.244 13.872C169.844 13.872 169.388 13.896 168.876 13.944V21.408ZM190.237 15.552L186.229 22.656V27.936C186.229 28.416 186.253 28.768 186.301 28.992C186.365 29.2 186.525 29.336 186.781 29.4C187.037 29.448 187.461 29.496 188.053 29.544C188.069 29.704 188.069 29.864 188.053 30.024C187.813 30.024 187.517 30.016 187.165 30C186.813 30 186.461 30 186.109 30C185.773 29.984 185.493 29.976 185.269 29.976C185.045 29.976 184.757 29.984 184.405 30C184.069 30 183.725 30 183.373 30C183.021 30.016 182.725 30.024 182.485 30.024C182.469 29.864 182.469 29.704 182.485 29.544C183.077 29.496 183.493 29.448 183.733 29.4C183.989 29.336 184.149 29.216 184.213 29.04C184.277 28.864 184.309 28.568 184.309 28.152V22.824L180.205 15.432C179.917 14.904 179.685 14.528 179.509 14.304C179.349 14.064 179.149 13.904 178.909 13.824C178.685 13.744 178.333 13.688 177.853 13.656C177.837 13.496 177.837 13.336 177.853 13.176C178.269 13.176 178.717 13.184 179.197 13.2C179.693 13.216 180.157 13.224 180.589 13.224C180.957 13.224 181.365 13.216 181.813 13.2C182.277 13.184 182.717 13.176 183.133 13.176C183.149 13.336 183.149 13.496 183.133 13.656C182.637 13.672 182.285 13.72 182.077 13.8C181.869 13.864 181.765 13.984 181.765 14.16C181.765 14.304 181.877 14.576 182.101 14.976L185.845 21.768L189.589 14.976C189.701 14.784 189.781 14.632 189.829 14.52C189.893 14.392 189.925 14.288 189.925 14.208C189.925 14.032 189.797 13.912 189.541 13.848C189.301 13.768 188.893 13.704 188.317 13.656C188.301 13.496 188.301 13.336 188.317 13.176C188.605 13.176 188.989 13.184 189.469 13.2C189.949 13.216 190.333 13.224 190.621 13.224C190.989 13.224 191.349 13.216 191.701 13.2C192.069 13.184 192.429 13.176 192.781 13.176C192.797 13.336 192.797 13.496 192.781 13.656C192.301 13.688 191.933 13.744 191.677 13.824C191.421 13.904 191.197 14.072 191.005 14.328C190.813 14.584 190.557 14.992 190.237 15.552ZM207.263 30.072C206.767 30.072 206.287 30.056 205.823 30.024C205.359 29.992 204.927 29.976 204.527 29.976C204.351 29.976 204.087 29.984 203.735 30C203.383 30 203.031 30 202.679 30C202.327 30.016 202.039 30.024 201.815 30.024C201.799 29.864 201.799 29.704 201.815 29.544C202.359 29.496 202.751 29.448 202.991 29.4C203.231 29.336 203.375 29.216 203.423 29.04C203.487 28.864 203.519 28.568 203.519 28.152V15.264C203.519 14.784 203.487 14.44 203.423 14.232C203.359 14.024 203.207 13.888 202.967 13.824C202.743 13.744 202.359 13.688 201.815 13.656C201.799 13.496 201.799 13.336 201.815 13.176C202.199 13.176 202.655 13.184 203.183 13.2C203.727 13.216 204.191 13.224 204.575 13.224C204.831 13.224 205.127 13.224 205.463 13.224C205.815 13.208 206.151 13.2 206.471 13.2C206.807 13.184 207.079 13.176 207.287 13.176C208.935 13.176 210.167 13.496 210.983 14.136C211.815 14.76 212.231 15.68 212.231 16.896C212.231 17.968 211.935 18.816 211.343 19.44C210.767 20.064 210.047 20.56 209.183 20.928V20.976C209.855 21.072 210.495 21.312 211.103 21.696C211.711 22.08 212.207 22.584 212.591 23.208C212.975 23.832 213.167 24.576 213.167 25.44C213.167 26.512 212.863 27.424 212.255 28.176C211.647 28.928 210.895 29.448 209.999 29.736C209.647 29.848 209.223 29.936 208.727 30C208.247 30.048 207.759 30.072 207.263 30.072ZM206.687 21.528C206.527 21.528 206.335 21.536 206.111 21.552C205.887 21.552 205.655 21.56 205.415 21.576V29.208C205.751 29.256 206.095 29.296 206.447 29.328C206.799 29.344 207.095 29.352 207.335 29.352C209.831 29.352 211.079 28.104 211.079 25.608C211.079 22.888 209.615 21.528 206.687 21.528ZM205.415 20.808C205.543 20.824 205.671 20.832 205.799 20.832C205.943 20.832 206.055 20.832 206.135 20.832C207.479 20.832 208.487 20.56 209.159 20.016C209.847 19.472 210.191 18.576 210.191 17.328C210.191 16.16 209.895 15.296 209.303 14.736C208.727 14.176 207.887 13.896 206.783 13.896C206.559 13.896 206.335 13.904 206.111 13.92C205.903 13.936 205.671 13.96 205.415 13.992V20.808ZM226.401 15.552L222.393 22.656V27.936C222.393 28.416 222.417 28.768 222.465 28.992C222.529 29.2 222.689 29.336 222.945 29.4C223.201 29.448 223.625 29.496 224.217 29.544C224.233 29.704 224.233 29.864 224.217 30.024C223.977 30.024 223.681 30.016 223.329 30C222.977 30 222.625 30 222.273 30C221.937 29.984 221.657 29.976 221.433 29.976C221.209 29.976 220.921 29.984 220.569 30C220.233 30 219.889 30 219.537 30C219.185 30.016 218.889 30.024 218.649 30.024C218.633 29.864 218.633 29.704 218.649 29.544C219.241 29.496 219.657 29.448 219.897 29.4C220.153 29.336 220.313 29.216 220.377 29.04C220.441 28.864 220.473 28.568 220.473 28.152V22.824L216.369 15.432C216.081 14.904 215.849 14.528 215.673 14.304C215.513 14.064 215.313 13.904 215.073 13.824C214.849 13.744 214.497 13.688 214.017 13.656C214.001 13.496 214.001 13.336 214.017 13.176C214.433 13.176 214.881 13.184 215.361 13.2C215.857 13.216 216.321 13.224 216.753 13.224C217.121 13.224 217.529 13.216 217.977 13.2C218.441 13.184 218.881 13.176 219.297 13.176C219.313 13.336 219.313 13.496 219.297 13.656C218.801 13.672 218.449 13.72 218.241 13.8C218.033 13.864 217.929 13.984 217.929 14.16C217.929 14.304 218.041 14.576 218.265 14.976L222.009 21.768L225.753 14.976C225.865 14.784 225.945 14.632 225.993 14.52C226.057 14.392 226.089 14.288 226.089 14.208C226.089 14.032 225.961 13.912 225.705 13.848C225.465 13.768 225.057 13.704 224.481 13.656C224.465 13.496 224.465 13.336 224.481 13.176C224.769 13.176 225.153 13.184 225.633 13.2C226.113 13.216 226.497 13.224 226.785 13.224C227.153 13.224 227.513 13.216 227.865 13.2C228.233 13.184 228.593 13.176 228.945 13.176C228.961 13.336 228.961 13.496 228.945 13.656C228.465 13.688 228.097 13.744 227.841 13.824C227.585 13.904 227.361 14.072 227.169 14.328C226.977 14.584 226.721 14.992 226.401 15.552Z" fill="white"/>
<path d="M88.8971 79.5C89.7637 79.5 90.4971 79.2 91.0971 78.6C91.7304 77.9667 92.0637 77.2167 92.0971 76.35V48.65C92.0637 47.7833 91.7304 47.05 91.0971 46.45C90.4971 45.8167 89.7637 45.5 88.8971 45.5H88.2471V45H99.1971V45.5H98.5471C97.3471 45.5 96.4304 46.0167 95.7971 47.05C95.4971 47.55 95.3471 48.0833 95.3471 48.65V78.45H102.497C104.964 78.45 106.847 77.9 108.147 76.8C109.447 75.7 110.53 74.0667 111.397 71.9H111.897L108.997 80H88.2471V79.5H88.8971ZM149.341 45.5H148.541C147.841 45.5 147.224 45.7333 146.691 46.2C146.191 46.6333 145.924 47.1833 145.891 47.85V67.65C145.891 71.55 144.657 74.7 142.191 77.1C139.724 79.5 136.441 80.7 132.341 80.7C128.241 80.7 124.907 79.5167 122.341 77.15C119.807 74.75 118.541 71.6 118.541 67.7V48C118.541 47 118.107 46.2667 117.241 45.8C116.841 45.6 116.391 45.5 115.891 45.5H115.091V45H125.241V45.5H124.441C123.707 45.5 123.091 45.7333 122.591 46.2C122.091 46.6333 121.824 47.2 121.791 47.9V67C121.791 70.6333 122.757 73.5667 124.691 75.8C126.657 78.0333 129.274 79.15 132.541 79.15C135.807 79.15 138.457 78.1 140.491 76C142.524 73.8667 143.541 71.0833 143.541 67.65V47.9C143.507 47.2 143.241 46.6333 142.741 46.2C142.241 45.7333 141.624 45.5 140.891 45.5H140.091V45H149.341V45.5ZM190.749 45.5C189.915 45.5 189.199 45.8 188.599 46.4C187.999 46.9667 187.682 47.6667 187.649 48.5V74.3C187.649 76.2333 187.765 78.0667 187.999 79.8L188.099 80.7H187.649L160.399 51.6V76.5C160.399 77.3333 160.699 78.05 161.299 78.65C161.899 79.2167 162.615 79.5 163.449 79.5H164.399V80H154.099V79.5H155.049C155.882 79.5 156.599 79.2167 157.199 78.65C157.799 78.05 158.099 77.3167 158.099 76.45V50.5C158.099 48.4667 157.982 46.65 157.749 45.05L157.649 44.25H158.149L185.399 73.35V48.55C185.365 47.6833 185.049 46.9667 184.449 46.4C183.849 45.8 183.132 45.5 182.299 45.5H181.349V45H191.649V45.5H190.749ZM228.957 79.5H229.357V80H218.107V79.5H218.557C219.257 79.5 219.774 79.2833 220.107 78.85C220.474 78.3833 220.657 77.95 220.657 77.55C220.657 77.15 220.591 76.75 220.457 76.35L217.257 67.85H203.757L200.407 76.4C200.274 76.8 200.207 77.2 200.207 77.6C200.207 77.9667 200.374 78.3833 200.707 78.85C201.074 79.2833 201.607 79.5 202.307 79.5H202.757V80H192.707V79.5H193.157C193.991 79.5 194.807 79.2333 195.607 78.7C196.407 78.1667 197.057 77.3833 197.557 76.35L208.857 49.45C210.091 46.75 210.707 45.0333 210.707 44.3H211.157L224.557 76.35C225.024 77.3833 225.657 78.1667 226.457 78.7C227.257 79.2333 228.091 79.5 228.957 79.5ZM204.357 66.35H216.657L210.657 50.3L204.357 66.35Z" fill="white"/>
</g>
<defs>
<clipPath id="clip0_91_308">
<rect width="236" height="90" fill="white"/>
</clipPath>
</defs>
</svg>
